<?xml version="1.0" encoding="UTF-8"?>
<svg width="23px" height="21px" viewBox="0 0 23 21" version="1.1" xmlns="http://www.w3.org/2000/svg" xmlns:xlink="http://www.w3.org/1999/xlink">
    <!-- Generator: Sketch 49.3 (51167) - http://www.bohemiancoding.com/sketch -->
    <title>Shape Copy 2</title>
    <desc>Created with Sketch.</desc>
    <defs></defs>
    <g id="Page-1" stroke="none" stroke-width="1" fill="none" fill-rule="evenodd">
        <path d="M10.0276211,1.24501366 L10.1602838,1.24501366 C10.6592526,1.59769197 11.1116388,2.01612043 11.5,2.48826079 C11.8883612,2.01612043 12.3407474,1.59769197 12.8397162,1.24501366 L12.9723789,1.24501366 C12.9562715,1.22543149 12.940083,1.20592567 12.9238143,1.18649662 C14.0186519,0.436602997 15.328603,0 16.675,0 C20.217,0 23,2.88114407 23,6.54805472 C23,11.0483541 19.09,14.7152648 13.1675,20.2870641 L13.0660477,20.3819533 C12.1825256,21.2083194 10.8198681,21.2057022 9.93944452,20.3759482 L9.8325,20.2751585 C3.91,14.7152648 0,11.0483541 0,6.54805472 C0,2.88114407 2.783,0 6.325,0 C7.67139698,0 8.98134813,0.436602997 10.0761857,1.18649662 C10.059917,1.20592567 10.0437285,1.22543149 10.0276211,1.24501366 Z" id="Shape-Copy-2" fill="#FF6B76" fill-rule="nonzero"></path>
    </g>
</svg>